<mxfile host="app.diagrams.net" modified="2024-04-17T13:17:52.492Z" agent="Mozilla/5.0 (Windows NT 10.0; Win64; x64) AppleWebKit/537.36 (KHTML, like Gecko) Chrome/123.0.0.0 Safari/537.36" version="23.1.5" etag="yMK7tFzkPF_zlTO75FVw" type="github">
  <diagram name="Sida-1" id="w6RZrU1ZV-0dpOdVAXzY">
    <mxGraphModel>
      <root>
        <mxCell id="0" />
        <mxCell id="1" parent="0" />
      </root>
    </mxGraphModel>
  </diagram>
</mxfile>
